<?xml version="1.0" encoding="UTF-8" standalone="no"?>
<svg
   enable-background="new 0 0 100 100"
   id="Layer_1"
   version="1.1"
   viewBox="0 0 32 32"
   xml:space="preserve"
   sodipodi:docname="snowflake-3.svg"
   inkscape:version="1.3.2 (091e20e, 2023-11-25, custom)"
   width="32"
   height="32"
   xmlns:inkscape="http://www.inkscape.org/namespaces/inkscape"
   xmlns:sodipodi="http://sodipodi.sourceforge.net/DTD/sodipodi-0.dtd"
   xmlns="http://www.w3.org/2000/svg"
   xmlns:svg="http://www.w3.org/2000/svg"><defs
     id="defs9" /><sodipodi:namedview
     id="namedview9"
     pagecolor="#ffffff"
     bordercolor="#000000"
     borderopacity="0.25"
     inkscape:showpageshadow="2"
     inkscape:pageopacity="0.0"
     inkscape:pagecheckerboard="0"
     inkscape:deskcolor="#d1d1d1"
     inkscape:zoom="6.25"
     inkscape:cx="50"
     inkscape:cy="50"
     inkscape:window-width="1680"
     inkscape:window-height="987"
     inkscape:window-x="1672"
     inkscape:window-y="-8"
     inkscape:window-maximized="1"
     inkscape:current-layer="Layer_1" /><g
     id="g9"
     style="fill:#d8d7dc;fill-opacity:1"
     transform="matrix(0.27173913,0,0,0.27173913,2.4130435,2.4130435)"><path
       d="m 78.991,16.009 c -2.757,0 -5,2.243 -5,5 0,2.757 2.243,5 5,5 2.757,0 5,-2.243 5,-5 0,-2.757 -2.243,-5 -5,-5 z m 0,8 c -1.654,0 -3,-1.346 -3,-3 0,-1.654 1.346,-3 3,-3 1.654,0 3,1.346 3,3 0,1.654 -1.345,3 -3,3 z"
       id="path1"
       style="fill:#d8d7dc;fill-opacity:1" /><path
       d="m 50,14 c 2.757,0 5,-2.243 5,-5 0,-2.757 -2.243,-5 -5,-5 -2.757,0 -5,2.243 -5,5 0,2.757 2.243,5 5,5 z m 0,-8 c 1.654,0 3,1.346 3,3 0,1.654 -1.346,3 -3,3 -1.654,0 -3,-1.346 -3,-3 0,-1.654 1.346,-3 3,-3 z"
       id="path2"
       style="fill:#d8d7dc;fill-opacity:1" /><path
       d="m 21.008,73.991 c -2.757,0 -5,2.243 -5,5 0,2.757 2.243,5 5,5 2.757,0 5,-2.243 5,-5 0,-2.757 -2.243,-5 -5,-5 z m 0,8 c -1.654,0 -3,-1.346 -3,-3 0,-1.654 1.346,-3 3,-3 1.654,0 3,1.346 3,3 0,1.654 -1.346,3 -3,3 z"
       id="path3"
       style="fill:#d8d7dc;fill-opacity:1" /><path
       d="m 78.991,73.991 c -2.757,0 -5,2.243 -5,5 0,2.757 2.243,5 5,5 2.757,0 5,-2.243 5,-5 0,-2.757 -2.243,-5 -5,-5 z m 0,8 c -1.654,0 -3,-1.346 -3,-3 0,-1.654 1.346,-3 3,-3 1.654,0 3,1.346 3,3 0,1.654 -1.345,3 -3,3 z"
       id="path4"
       style="fill:#d8d7dc;fill-opacity:1" /><path
       d="m 80.178,69.613 c 0,-0.553 -0.447,-1 -1,-1 h -9.151 l -2.76,-2.76 V 57.147 L 73.414,51 h 6.172 l -5.056,5.057 c -0.391,0.391 -0.391,1.023 0,1.414 0.195,0.195 0.451,0.293 0.707,0.293 0.256,0 0.512,-0.098 0.707,-0.293 l 6.764,-6.764 c 0.083,-0.083 0.139,-0.181 0.187,-0.281 0.007,-0.014 0.019,-0.023 0.025,-0.038 0.105,-0.248 0.105,-0.528 0,-0.777 -0.008,-0.018 -0.023,-0.03 -0.032,-0.048 -0.047,-0.096 -0.1,-0.191 -0.18,-0.271 l -6.764,-6.764 c -0.391,-0.391 -1.023,-0.391 -1.414,0 -0.391,0.391 -0.391,1.023 0,1.414 L 79.586,49 h -6.172 l -6.147,-6.147 v -8.706 l 2.76,-2.76 h 9.151 c 0.553,0 1,-0.448 1,-1 0,-0.552 -0.447,-1 -1,-1 h -8.565 v -8.565 c 0,-0.552 -0.447,-1 -1,-1 -0.553,0 -1,0.448 -1,1 v 9.151 l -2.76,2.76 H 57.147 L 51,26.586 v -6.172 l 5.057,5.057 c 0.195,0.195 0.451,0.293 0.707,0.293 0.256,0 0.512,-0.098 0.707,-0.293 0.391,-0.391 0.391,-1.023 0,-1.414 l -6.764,-6.764 c -0.079,-0.079 -0.173,-0.131 -0.268,-0.178 -0.018,-0.009 -0.031,-0.026 -0.05,-0.033 -0.248,-0.105 -0.528,-0.105 -0.777,0 -0.018,0.007 -0.03,0.023 -0.047,0.031 -0.096,0.047 -0.192,0.1 -0.272,0.181 l -6.764,6.764 c -0.391,0.391 -0.391,1.023 0,1.414 0.391,0.391 1.023,0.391 1.414,0 L 49,20.414 v 6.172 l -6.147,6.147 h -8.705 l -2.761,-2.761 v -9.15 c 0,-0.552 -0.447,-1 -1,-1 -0.553,0 -1,0.448 -1,1 v 8.565 h -8.565 c -0.553,0 -1,0.448 -1,1 0,0.552 0.447,1 1,1 h 9.152 l 2.765,2.765 v 8.695 L 26.586,49 h -6.172 l 5.057,-5.057 c 0.391,-0.391 0.391,-1.023 0,-1.414 -0.391,-0.391 -1.023,-0.391 -1.414,0 l -6.764,6.764 c -0.051,0.051 -0.078,0.116 -0.116,0.174 -0.032,0.049 -0.074,0.091 -0.097,0.146 -0.104,0.247 -0.104,0.526 0,0.773 0.021,0.05 0.06,0.088 0.089,0.134 0.04,0.064 0.069,0.132 0.124,0.187 l 6.764,6.764 c 0.195,0.195 0.451,0.293 0.707,0.293 0.256,0 0.512,-0.098 0.707,-0.293 0.391,-0.391 0.391,-1.023 0,-1.414 L 20.414,51 h 6.171 l 6.152,6.152 v 8.695 l -2.765,2.765 H 20.82 c -0.553,0 -1,0.447 -1,1 0,0.553 0.447,1 1,1 h 8.565 v 8.565 c 0,0.553 0.447,1 1,1 0.553,0 1,-0.447 1,-1 v -9.15 l 2.766,-2.767 h 8.694 L 49,73.414 v 6.172 l -5.057,-5.057 c -0.391,-0.391 -1.023,-0.391 -1.414,0 -0.391,0.391 -0.391,1.023 0,1.414 l 6.764,6.764 c 0.078,0.078 0.17,0.128 0.264,0.175 0.02,0.01 0.034,0.028 0.055,0.037 C 49.736,82.971 49.867,83 50,83 c 0.133,0 0.264,-0.029 0.388,-0.081 0.022,-0.009 0.038,-0.028 0.059,-0.039 0.092,-0.047 0.183,-0.096 0.26,-0.173 l 6.764,-6.764 c 0.391,-0.391 0.391,-1.023 0,-1.414 -0.391,-0.391 -1.023,-0.391 -1.414,0 L 51,79.586 v -6.172 l 6.152,-6.153 h 8.694 l 2.766,2.766 v 9.151 c 0,0.553 0.447,1 1,1 0.553,0 1,-0.447 1,-1 v -8.565 h 8.565 c 0.553,0 1.001,-0.448 1.001,-1 z M 65.56,56.026 c -0.188,0.188 -0.293,0.441 -0.293,0.707 v 7.12 L 58.448,57.034 C 59.839,55.367 60.742,53.283 60.95,51 h 9.636 z M 50,59 c -4.963,0 -9,-4.038 -9,-9 0,-4.962 4.037,-9 9,-9 4.963,0 9,4.038 9,9 0,4.962 -4.037,9 -9,9 z M 65.56,43.974 70.586,49 h -9.637 c -0.207,-2.283 -1.111,-4.367 -2.502,-6.034 l 6.819,-6.819 v 7.12 c 10e-4,0.265 0.106,0.519 0.294,0.707 z M 56.025,34.44 c 0.188,0.188 0.441,0.293 0.707,0.293 h 7.12 l -6.819,6.818 C 55.366,40.16 53.282,39.257 50.999,39.05 v -9.636 z m -12.758,0.293 c 0.266,0 0.52,-0.105 0.707,-0.293 L 49,29.414 v 9.637 c -2.283,0.207 -4.367,1.111 -6.034,2.502 l -6.819,-6.819 h 7.12 z m -8.822,9.235 c 0.188,-0.188 0.293,-0.442 0.293,-0.707 v -7.109 l 6.814,6.814 C 40.161,44.633 39.258,46.717 39.051,49 h -9.637 z m 0,12.063 L 29.414,51 h 9.636 c 0.207,2.283 1.111,4.366 2.501,6.033 l -6.813,6.814 v -7.109 c 0,-0.265 -0.105,-0.519 -0.293,-0.707 z m 9.523,9.523 C 43.78,65.366 43.527,65.261 43.261,65.261 h -7.108 l 6.813,-6.813 c 1.668,1.391 3.751,2.295 6.034,2.502 v 9.637 z m 12.77,-0.293 c -0.266,0 -0.52,0.105 -0.707,0.293 L 51,70.586 V 60.95 c 2.283,-0.207 4.366,-1.111 6.034,-2.501 l 6.813,6.813 h -7.109 z"
       id="path5"
       style="fill:#d8d7dc;fill-opacity:1" /><path
       d="m 21.008,26.009 c 2.757,0 5,-2.243 5,-5 0,-2.757 -2.243,-5 -5,-5 -2.757,0 -5,2.243 -5,5 0,2.757 2.243,5 5,5 z m 0,-8 c 1.654,0 3,1.346 3,3 0,1.654 -1.346,3 -3,3 -1.654,0 -3,-1.346 -3,-3 0,-1.654 1.346,-3 3,-3 z"
       id="path6"
       style="fill:#d8d7dc;fill-opacity:1" /><path
       d="m 50,86 c -2.757,0 -5,2.243 -5,5 0,2.757 2.243,5 5,5 2.757,0 5,-2.243 5,-5 0,-2.757 -2.243,-5 -5,-5 z m 0,8 c -1.654,0 -3,-1.346 -3,-3 0,-1.654 1.346,-3 3,-3 1.654,0 3,1.346 3,3 0,1.654 -1.346,3 -3,3 z"
       id="path7"
       style="fill:#d8d7dc;fill-opacity:1" /><path
       d="m 91,45 c -2.757,0 -5,2.243 -5,5 0,2.757 2.243,5 5,5 2.757,0 5,-2.243 5,-5 0,-2.757 -2.243,-5 -5,-5 z m 0,8 c -1.654,0 -3,-1.346 -3,-3 0,-1.654 1.346,-3 3,-3 1.654,0 3,1.346 3,3 0,1.655 -1.346,3 -3,3 z"
       id="path8"
       style="fill:#d8d7dc;fill-opacity:1" /><path
       d="m 9,45 c -2.757,0 -5,2.243 -5,5 0,2.757 2.243,5 5,5 2.757,0 5,-2.243 5,-5 0,-2.757 -2.243,-5 -5,-5 z m 0,8 c -1.654,0 -3,-1.346 -3,-3 0,-1.654 1.346,-3 3,-3 1.654,0 3,1.346 3,3 0,1.655 -1.346,3 -3,3 z"
       id="path9"
       style="fill:#d8d7dc;fill-opacity:1" /></g></svg>
