<?xml version="1.0" encoding="UTF-8" standalone="no"?>
<svg
   enable-background="new 0 0 100 100"
   id="Layer_1"
   version="1.1"
   viewBox="0 0 32 32"
   xml:space="preserve"
   sodipodi:docname="snowflake-2.svg"
   inkscape:version="1.3.2 (091e20e, 2023-11-25, custom)"
   width="32"
   height="32"
   xmlns:inkscape="http://www.inkscape.org/namespaces/inkscape"
   xmlns:sodipodi="http://sodipodi.sourceforge.net/DTD/sodipodi-0.dtd"
   xmlns="http://www.w3.org/2000/svg"
   xmlns:svg="http://www.w3.org/2000/svg"><defs
     id="defs1" /><sodipodi:namedview
     id="namedview1"
     pagecolor="#ffffff"
     bordercolor="#000000"
     borderopacity="0.25"
     inkscape:showpageshadow="2"
     inkscape:pageopacity="0.0"
     inkscape:pagecheckerboard="0"
     inkscape:deskcolor="#d1d1d1"
     inkscape:zoom="6.25"
     inkscape:cx="50"
     inkscape:cy="50"
     inkscape:window-width="1680"
     inkscape:window-height="987"
     inkscape:window-x="1672"
     inkscape:window-y="-8"
     inkscape:window-maximized="1"
     inkscape:current-layer="Layer_1" /><path
     d="m 28.228027,15.728081 h -3.274419 l 2.081793,-2.081793 c 0.106319,-0.106319 0.106319,-0.27817 0,-0.38449 -0.106319,-0.106319 -0.278171,-0.106319 -0.38449,0 l -2.466282,2.466283 h -3.038123 l 2.711551,-2.711823 c 0.02529,-0.02502 0.04514,-0.0552 0.05901,-0.08864 0.02746,-0.06635 0.02746,-0.141397 0,-0.207744 -0.02746,-0.06662 -0.08049,-0.119644 -0.147107,-0.147107 -0.03317,-0.01387 -0.06852,-0.02094 -0.103872,-0.02094 h -3.83375 l 2.148412,-2.148412 h 3.486241 c 0.150098,0 0.271916,-0.121546 0.271916,-0.271916 0,-0.1503705 -0.121818,-0.2719175 -0.271916,-0.2719175 h -2.942408 l 2.319719,-2.319719 c 0.106319,-0.1063194 0.106319,-0.2781706 0,-0.3844899 -0.106319,-0.1063194 -0.278171,-0.1063194 -0.38449,0 L 22.139273,9.4759045 V 6.532137 c 0,-0.1503698 -0.121819,-0.2719164 -0.271916,-0.2719164 -0.150098,0 -0.271917,0.1215466 -0.271917,0.2719164 v 3.487601 l -2.147052,2.147053 V 8.3319521 c 0,-0.035349 -0.0073,-0.070698 -0.02094,-0.1038721 -0.02746,-0.066619 -0.08049,-0.1196432 -0.147107,-0.1471068 -0.06635,-0.027463 -0.141396,-0.027463 -0.207744,0 -0.03345,0.013868 -0.06336,0.033718 -0.08864,0.059006 L 16.271859,10.852346 V 7.8136793 l 2.465467,-2.4654666 c 0.106319,-0.1063193 0.106319,-0.2781705 0,-0.3844899 -0.106319,-0.1063193 -0.27817,-0.1063193 -0.38449,0 L 16.271859,7.0446996 V 3.771913 c 0,-0.1503698 -0.121818,-0.2719165 -0.271916,-0.2719165 -0.150098,0 -0.271916,0.1215467 -0.271916,0.2719165 V 7.0446996 L 13.64705,4.9637228 c -0.10632,-0.1063193 -0.278171,-0.1063193 -0.38449,0 -0.106319,0.1063194 -0.106319,0.2781706 0,0.3844899 l 2.465467,2.4654666 V 10.850715 L 13.017019,8.1399791 c -0.02502,-0.025288 -0.0552,-0.045138 -0.08864,-0.059006 -0.06635,-0.027463 -0.141397,-0.027463 -0.207745,0 -0.06662,0.027464 -0.119643,0.080487 -0.147106,0.1471068 -0.01387,0.033174 -0.02094,0.068523 -0.02094,0.1038721 V 12.16815 L 10.403902,10.019466 V 6.532137 c 0,-0.1503698 -0.121818,-0.2719164 -0.271916,-0.2719164 -0.150098,0 -0.271917,0.1215466 -0.271917,0.2719164 V 9.4759045 L 7.539534,7.1553696 c -0.1063193,-0.1063194 -0.2781705,-0.1063194 -0.3844898,0 -0.1063194,0.1063193 -0.1063194,0.2781705 0,0.3844899 L 9.474764,9.8595785 H 6.5326274 c -0.1500979,0 -0.2719165,0.121547 -0.2719165,0.2719175 0,0.15037 0.1218186,0.271916 0.2719165,0.271916 h 3.4859686 l 2.148412,2.148412 H 8.3324425 c -0.035349,0 -0.070698,0.0071 -0.1038721,0.02094 -0.06662,0.02746 -0.1196433,0.08049 -0.1471068,0.147107 -0.027464,0.06635 -0.027464,0.141396 0,0.207744 0.013868,0.03345 0.033718,0.06336 0.059006,0.08864 l 2.7118224,2.711823 H 7.8149854 l -2.4662823,-2.46628 c -0.1063194,-0.106319 -0.2781706,-0.106319 -0.3844899,0 -0.1063194,0.10632 -0.1063194,0.278171 0,0.38449 l 2.0817924,2.081793 H 3.7718595 c -0.1500979,0 -0.2719165,0.121545 -0.2719165,0.271916 0,0.150369 0.1218186,0.271916 0.2719165,0.271916 h 3.2725147 l -2.080161,2.07989 c -0.1063194,0.106318 -0.1063194,0.278169 0,0.384488 0.053024,0.05302 0.1226343,0.07967 0.1922449,0.07967 0.069611,0 0.1392212,-0.02665 0.192245,-0.07967 L 7.8133539,16.271912 H 10.85202 l -2.7115506,2.711551 c -0.025288,0.02502 -0.045138,0.0552 -0.059006,0.08865 -0.027464,0.06635 -0.027464,0.141398 0,0.207745 0.027463,0.06662 0.080487,0.119644 0.1471068,0.147106 0.033174,0.01387 0.068523,0.02094 0.1038721,0.02094 H 12.16728 l -2.147052,2.147053 H 6.5328993 c -0.1500979,0 -0.2719165,0.121547 -0.2719165,0.271916 0,0.15037 0.1218186,0.271917 0.2719165,0.271917 H 9.476395 l -2.3210789,2.321079 c -0.1063194,0.106319 -0.1063194,0.278171 0,0.38449 0.053024,0.05302 0.1226343,0.07967 0.1922449,0.07967 0.069611,0 0.1392212,-0.02665 0.192245,-0.07967 l 2.320535,-2.320535 v 2.942136 c 0,0.15037 0.121819,0.271917 0.271917,0.271917 0.150097,0 0.271916,-0.121547 0.271916,-0.271917 v -3.485969 l 2.148684,-2.148684 v 3.836741 0 c 0,0.03535 0.0073,0.0707 0.02094,0.104144 0.02746,0.06635 0.08049,0.119372 0.147106,0.146835 0.03263,0.0136 0.06716,0.02039 0.101969,0.02067 5.44e-4,0 0.0011,2.72e-4 0.0019,2.72e-4 0,0 0,0 0,0 0.03535,0 0.0707,-0.0073 0.104144,-0.02094 0.03263,-0.0136 0.06227,-0.03317 0.08701,-0.05792 2.72e-4,-2.72e-4 8.15e-4,-5.44e-4 0.0014,-8.16e-4 l 2.710736,-2.713182 v 3.037851 l -2.465467,2.465194 c -0.106319,0.10632 -0.106319,0.278171 0,0.38449 0.106319,0.106319 0.27817,0.106319 0.38449,0 l 2.080977,-2.080705 v 3.274146 c 0,0.15037 0.121818,0.271917 0.271916,0.271917 0.150098,0 0.271916,-0.121547 0.271916,-0.271917 v -3.274146 l 2.080977,2.080705 c 0.05302,0.05302 0.122635,0.07967 0.192245,0.07967 0.06961,0 0.139221,-0.02665 0.192245,-0.07967 0.106319,-0.106319 0.106319,-0.27817 0,-0.38449 l -2.465467,-2.465194 v -3.039483 l 2.712367,2.714814 c 2.72e-4,2.72e-4 8.16e-4,5.44e-4 0.0011,8.16e-4 0.02474,0.02474 0.05438,0.04432 0.08729,0.05792 0.03317,0.01387 0.06852,0.02094 0.103872,0.02094 0.03535,0 0.0707,-0.0073 0.103872,-0.02094 0.06635,-0.02746 0.119372,-0.08049 0.147107,-0.146835 0.01387,-0.03317 0.02094,-0.06852 0.02094,-0.104144 v 0 -3.834839 l 2.147052,2.147053 v 3.48597 c 0,0.150369 0.121819,0.271916 0.271917,0.271916 0.150097,0 0.271916,-0.121546 0.271916,-0.271916 v -2.942137 l 2.320535,2.320535 c 0.05302,0.05302 0.122634,0.07967 0.192245,0.07967 0.06961,0 0.139221,-0.02665 0.192245,-0.07967 0.106319,-0.106319 0.106319,-0.278171 0,-0.38449 l -2.321079,-2.321079 h 2.943768 c 0.150098,0 0.271916,-0.121547 0.271916,-0.271916 0,-0.15037 -0.121818,-0.271917 -0.271916,-0.271917 h -3.487601 l -2.147052,-2.147052 h 3.836197 c 0.03535,0 0.0707,-0.0073 0.103872,-0.02094 0.0329,-0.0136 0.06227,-0.03317 0.08729,-0.05792 2.72e-4,-2.72e-4 8.16e-4,-5.45e-4 0.0011,-8.16e-4 0.0019,-0.0019 0.0024,-0.0043 0.0044,-0.0065 0.02257,-0.02393 0.0416,-0.05112 0.05438,-0.08185 0.0136,-0.03317 0.02094,-0.06825 0.02094,-0.1036 0,0 0,-2.72e-4 0,-2.72e-4 v 0 c 0,-0.03535 -0.0073,-0.0707 -0.02094,-0.104144 -0.01387,-0.03345 -0.03372,-0.06336 -0.05901,-0.08837 l -2.713726,-2.711823 h 3.039482 l 2.464651,2.464379 c 0.05302,0.05302 0.122634,0.07967 0.192245,0.07967 0.06961,0 0.139221,-0.02665 0.192245,-0.07967 0.106319,-0.106319 0.106319,-0.27817 0,-0.384489 l -2.080161,-2.07989 h 3.272787 c 0.150097,0 0.271916,-0.121546 0.271916,-0.271916 0,-0.15037 -0.121819,-0.271916 -0.271916,-0.271916 z m -5.218349,-2.632152 -2.632424,2.632152 h -1.400098 c -0.05601,-0.620786 -0.301555,-1.187188 -0.680335,-1.640744 l 0.99168,-0.99168 h 3.721177 z m -6.99913,5.351043 c -1.674734,-0.06662 -2.439363,-1.309006 -2.44317,-2.438818 0,-0.0027 0.0016,-0.0052 0.0016,-0.0079 0,-0.003 -0.0016,-0.0054 -0.0016,-0.0084 0.0035,-1.129541 0.767349,-2.3722 2.429846,-2.439363 8.16e-4,-2.72e-4 0.0016,2.72e-4 0.0027,2.72e-4 0.0011,0 0.0022,-5.44e-4 0.0033,-5.44e-4 1.347618,0.0019 2.443985,1.098814 2.443985,2.447248 0,1.34925 -1.097998,2.447248 -2.436643,2.44752 z m 2.894007,-9.4586135 v 3.7222645 l -0.992767,0.992767 c -0.452741,-0.376877 -1.018599,-0.622961 -1.6402,-0.680607 v -1.401458 z m -5.807864,0 2.631336,2.6313365 v 1.411246 c -0.68523,0.0726 -1.233142,0.315423 -1.651349,0.661301 L 13.096691,12.712255 Z M 8.9888488,13.095928 h 3.7222642 l 0.981891,0.98189 c -0.391016,0.480478 -0.60719,1.068088 -0.657766,1.650533 H 11.621 Z m 2.719e-4,5.808136 2.6321513,-2.632152 h 1.41451 c 0.05085,0.58163 0.267293,1.168697 0.658853,1.648902 l -0.98325,0.98325 z m 4.1075703,4.107027 v -3.723352 l 0.98189,-0.98189 c 0.417936,0.344518 0.96476,0.587339 1.649446,0.6613 v 1.410431 z m 5.807864,0 -2.632696,-2.635143 v -1.399282 c 0.620514,-0.05629 1.186916,-0.301828 1.640473,-0.679791 l 0.992495,0.992495 v 3.721721 z m 4.107298,-4.107027 h -3.723352 l -0.991952,-0.991951 c 0.378236,-0.453285 0.624049,-1.019687 0.680607,-1.640201 h 1.40037 z"
     id="path1"
     style="fill:#d8d7dc;fill-opacity:1;stroke-width:0.271916" /></svg>
