<?xml version="1.0" encoding="UTF-8" standalone="no"?>
<svg
   enable-background="new 0 0 100 100"
   id="Layer_1"
   version="1.1"
   viewBox="0 0 32 32"
   xml:space="preserve"
   sodipodi:docname="snowflake-1.svg"
   inkscape:version="1.3.2 (091e20e, 2023-11-25, custom)"
   width="32"
   height="32"
   xmlns:inkscape="http://www.inkscape.org/namespaces/inkscape"
   xmlns:sodipodi="http://sodipodi.sourceforge.net/DTD/sodipodi-0.dtd"
   xmlns="http://www.w3.org/2000/svg"
   xmlns:svg="http://www.w3.org/2000/svg"><defs
     id="defs9" /><sodipodi:namedview
     id="namedview9"
     pagecolor="#ffffff"
     bordercolor="#000000"
     borderopacity="0.25"
     inkscape:showpageshadow="2"
     inkscape:pageopacity="0.0"
     inkscape:pagecheckerboard="0"
     inkscape:deskcolor="#d1d1d1"
     inkscape:zoom="7.49"
     inkscape:cx="49.933244"
     inkscape:cy="28.638184"
     inkscape:window-width="1680"
     inkscape:window-height="987"
     inkscape:window-x="1672"
     inkscape:window-y="-8"
     inkscape:window-maximized="1"
     inkscape:current-layer="Layer_1" /><g
     id="g9"
     style="fill:#d8d7dc;fill-opacity:1;stroke:none;stroke-opacity:1"
     transform="matrix(0.27175242,0,0,0.27175242,2.412379,2.41243)"><path
       d="m 50,14 c 1.336,0 2.591,-0.521 3.536,-1.465 1.949,-1.949 1.949,-5.122 0,-7.071 -1.949,-1.949 -5.121,-1.948 -7.071,0 -1.949,1.949 -1.949,5.122 0,7.071 C 47.409,13.48 48.665,14 50,14 Z M 47.878,6.878 C 48.463,6.294 49.232,6.001 50,6.001 c 0.769,0 1.537,0.293 2.122,0.877 1.169,1.17 1.169,3.073 0,4.243 -1.134,1.133 -3.109,1.133 -4.243,0 -1.17,-1.17 -1.17,-3.073 -10e-4,-4.243 z"
       id="path1"
       style="fill:#d8d7dc;fill-opacity:1;stroke:none;stroke-opacity:1" /><path
       d="m 46.464,87.464 c -1.949,1.949 -1.949,5.122 0,7.071 0.975,0.975 2.255,1.462 3.536,1.462 1.281,0 2.561,-0.487 3.536,-1.462 1.949,-1.949 1.949,-5.122 0,-7.071 -1.95,-1.949 -5.122,-1.949 -7.072,0 z m 5.658,5.657 c -1.17,1.17 -3.073,1.17 -4.243,0 -1.169,-1.17 -1.169,-3.073 0,-4.243 1.17,-1.169 3.073,-1.168 4.243,0 1.169,1.17 1.169,3.073 0,4.243 z"
       id="path2"
       style="fill:#d8d7dc;fill-opacity:1;stroke:none;stroke-opacity:1" /><path
       d="m 94.536,46.464 c -1.949,-1.949 -5.121,-1.948 -7.071,0 -1.949,1.949 -1.949,5.122 0,7.071 C 88.409,54.48 89.665,55 91,55 c 1.336,0 2.591,-0.521 3.536,-1.465 1.949,-1.949 1.949,-5.122 0,-7.071 z m -1.414,5.657 c -1.134,1.133 -3.109,1.133 -4.243,0 -1.169,-1.17 -1.169,-3.073 0,-4.243 0.585,-0.584 1.354,-0.877 2.122,-0.877 0.768,0 1.536,0.292 2.121,0.877 1.169,1.17 1.169,3.073 0,4.243 z"
       id="path3"
       style="fill:#d8d7dc;fill-opacity:1;stroke:none;stroke-opacity:1" /><path
       d="m 85.207,42.53 c -0.391,-0.391 -1.023,-0.391 -1.414,0 L 77.322,49 h -8.395 l 9.972,-9.973 c 0.093,-0.092 0.166,-0.203 0.217,-0.326 0.101,-0.244 0.101,-0.52 0,-0.764 -0.101,-0.245 -0.296,-0.44 -0.541,-0.541 -0.122,-0.051 -0.252,-0.077 -0.382,-0.077 H 64.094 l 5.932,-5.933 h 9.151 c 0.552,0 1,-0.447 1,-1 0,-0.553 -0.448,-1 -1,-1 h -8.565 v -8.564 c 0,-0.553 -0.448,-1 -1,-1 -0.552,0 -1,0.447 -1,1 v 9.15 l -5.93,5.93 V 21.8 c 0,-0.13 -0.027,-0.26 -0.077,-0.382 -0.101,-0.245 -0.296,-0.44 -0.541,-0.541 -0.244,-0.101 -0.52,-0.101 -0.764,0 -0.123,0.051 -0.233,0.124 -0.326,0.217 L 51,31.069 v -8.391 l 6.471,-6.471 c 0.391,-0.391 0.391,-1.023 0,-1.414 -0.391,-0.391 -1.023,-0.391 -1.414,0 L 50,20.85 43.943,14.793 c -0.391,-0.391 -1.023,-0.391 -1.414,0 -0.391,0.391 -0.391,1.023 0,1.414 L 49,22.678 v 8.385 l -9.97,-9.969 c -0.092,-0.093 -0.203,-0.166 -0.326,-0.217 -0.244,-0.101 -0.52,-0.101 -0.764,0 -0.245,0.101 -0.44,0.296 -0.541,0.541 -0.051,0.122 -0.077,0.252 -0.077,0.382 v 14.108 l -5.935,-5.935 v -9.15 c 0,-0.553 -0.448,-1 -1,-1 -0.552,0 -1,0.447 -1,1 v 8.564 h -8.565 c -0.552,0 -1,0.447 -1,1 0,0.553 0.448,1 1,1 h 9.151 l 5.932,5.933 H 21.803 c -0.13,0 -0.26,0.026 -0.382,0.077 -0.245,0.101 -0.44,0.296 -0.541,0.541 -0.101,0.244 -0.101,0.52 0,0.764 0.051,0.123 0.124,0.233 0.217,0.326 L 31.069,49 h -8.391 l -6.471,-6.471 c -0.391,-0.391 -1.023,-0.391 -1.414,0 -0.391,0.391 -0.391,1.023 0,1.414 L 20.85,50 14.793,56.057 c -0.391,0.391 -0.391,1.023 0,1.414 0.195,0.195 0.451,0.293 0.707,0.293 0.256,0 0.512,-0.098 0.707,-0.293 L 22.678,51 h 8.391 l -9.972,9.972 c -0.093,0.092 -0.166,0.203 -0.217,0.326 -0.101,0.244 -0.101,0.52 0,0.764 0.101,0.245 0.296,0.44 0.541,0.541 0.122,0.051 0.252,0.077 0.382,0.077 h 14.103 l -5.933,5.933 h -9.151 c -0.552,0 -1,0.447 -1,1 0,0.553 0.448,1 1,1 h 8.565 v 8.565 c 0,0.553 0.448,1 1,1 0.552,0 1,-0.447 1,-1 v -9.152 l 5.935,-5.935 v 14.109 0 c 0,0.13 0.027,0.26 0.077,0.383 0.101,0.244 0.296,0.439 0.541,0.54 0.12,0.05 0.247,0.075 0.375,0.076 0.002,0 0.004,0.001 0.007,0.001 0,0 0,0 0,0 0.13,0 0.26,-0.027 0.383,-0.077 0.12,-0.05 0.229,-0.122 0.32,-0.213 0.001,-10e-4 0.003,-0.002 0.005,-0.003 L 49,68.929 v 8.394 l -6.471,6.471 c -0.391,0.391 -0.391,1.023 0,1.414 0.391,0.391 1.023,0.391 1.414,0 L 50,79.151 l 6.057,6.057 c 0.195,0.195 0.451,0.293 0.707,0.293 0.256,0 0.512,-0.098 0.707,-0.293 0.391,-0.391 0.391,-1.023 0,-1.414 L 51,77.323 v -8.4 l 9.975,9.984 c 10e-4,0.001 0.003,0.002 0.004,0.003 0.091,0.091 0.2,0.163 0.321,0.213 0.122,0.051 0.252,0.077 0.382,0.077 0.13,0 0.26,-0.027 0.382,-0.077 0.244,-0.101 0.439,-0.296 0.541,-0.54 0.051,-0.122 0.077,-0.252 0.077,-0.383 v 0 -14.103 l 5.93,5.93 v 9.151 c 0,0.553 0.448,1 1,1 0.552,0 1,-0.447 1,-1 v -8.565 h 8.565 c 0.552,0 1,-0.447 1,-1 0,-0.553 -0.448,-1 -1,-1 H 70.026 L 64.093,62.68 h 14.109 c 0.13,0 0.26,-0.027 0.382,-0.077 0.121,-0.05 0.229,-0.122 0.321,-0.213 0.001,-10e-4 0.003,-0.002 0.004,-0.003 0.007,-0.007 0.009,-0.016 0.016,-0.024 0.083,-0.088 0.153,-0.188 0.2,-0.301 0.05,-0.122 0.077,-0.251 0.077,-0.381 0,0 0,-10e-4 0,-10e-4 v 0 c 0,-0.13 -0.027,-0.26 -0.077,-0.383 -0.051,-0.123 -0.124,-0.233 -0.217,-0.325 L 68.928,51 h 8.394 l 6.471,6.471 c 0.195,0.195 0.451,0.293 0.707,0.293 0.256,0 0.512,-0.098 0.707,-0.293 0.391,-0.391 0.391,-1.023 0,-1.414 L 79.15,50 85.207,43.943 c 0.391,-0.39 0.391,-1.023 0,-1.413 z M 75.779,39.32 66.099,49 H 52.414 l 9.68,-9.681 H 75.779 Z M 60.683,24.214 V 37.903 L 51,47.586 V 33.897 Z m -21.36,0 L 49,33.891 V 47.586 L 39.323,37.908 Z M 24.217,39.32 H 37.906 L 47.586,49 H 33.897 Z m 0,21.36 9.68,-9.68 h 13.689 l -9.68,9.68 z M 39.323,75.784 V 62.091 L 49,52.414 v 13.684 z m 21.36,0 L 51,66.093 V 52.414 l 9.683,9.682 z M 75.787,60.68 H 62.094 L 52.414,51 h 13.685 z"
       id="path4"
       style="fill:#d8d7dc;fill-opacity:1;stroke:none;stroke-opacity:1" /><path
       d="m 5.464,46.464 c -1.949,1.949 -1.949,5.122 0,7.071 C 6.409,54.48 7.665,55 9,55 c 1.336,0 2.591,-0.521 3.536,-1.465 1.949,-1.949 1.949,-5.122 0,-7.071 -1.949,-1.949 -5.121,-1.949 -7.072,0 z m 5.658,5.657 c -1.134,1.133 -3.109,1.133 -4.243,0 -1.169,-1.17 -1.169,-3.073 0,-4.243 1.169,-1.168 3.072,-1.171 4.243,0 1.169,1.17 1.169,3.073 0,4.243 z"
       id="path5"
       style="fill:#d8d7dc;fill-opacity:1;stroke:none;stroke-opacity:1" /><path
       d="m 78.991,26.008 c 2.757,0 5,-2.243 5,-5 0,-2.757 -2.243,-5 -5,-5 -2.757,0 -5,2.243 -5,5 0,2.757 2.243,5 5,5 z m 0,-8 c 1.654,0 3,1.346 3,3 0,1.654 -1.346,3 -3,3 -1.654,0 -3,-1.346 -3,-3 0,-1.654 1.346,-3 3,-3 z"
       id="path6"
       style="fill:#d8d7dc;fill-opacity:1;stroke:none;stroke-opacity:1" /><path
       d="m 21.009,73.992 c -2.757,0 -5,2.243 -5,5 0,2.757 2.243,5 5,5 2.757,0 5,-2.243 5,-5 0,-2.757 -2.243,-5 -5,-5 z m 0,8 c -1.654,0 -3,-1.346 -3,-3 0,-1.654 1.346,-3 3,-3 1.654,0 3,1.346 3,3 0,1.654 -1.346,3 -3,3 z"
       id="path7"
       style="fill:#d8d7dc;fill-opacity:1;stroke:none;stroke-opacity:1" /><path
       d="m 78.991,73.992 c -2.757,0 -5,2.243 -5,5 0,2.757 2.243,5 5,5 2.757,0 5,-2.243 5,-5 0,-2.757 -2.243,-5 -5,-5 z m 0,8 c -1.654,0 -3,-1.346 -3,-3 0,-1.654 1.346,-3 3,-3 1.654,0 3,1.346 3,3 0,1.654 -1.345,3 -3,3 z"
       id="path8"
       style="fill:#d8d7dc;fill-opacity:1;stroke:none;stroke-opacity:1" /><path
       d="m 21.009,26.008 c 2.757,0 5,-2.243 5,-5 0,-2.757 -2.243,-5 -5,-5 -2.757,0 -5,2.243 -5,5 0,2.757 2.243,5 5,5 z m 0,-8 c 1.654,0 3,1.346 3,3 0,1.654 -1.346,3 -3,3 -1.654,0 -3,-1.346 -3,-3 0,-1.654 1.345,-3 3,-3 z"
       id="path9"
       style="fill:#d8d7dc;fill-opacity:1;stroke:none;stroke-opacity:1" /></g></svg>
